# Blender 4.3.2
# www.blender.org
mtllib pinntorp_chair.mtl
o pinntorp_chair
v -0.687753 0.861453 -0.584164
v -0.664202 0.861453 -0.134780
v -0.689083 0.854756 -0.584094
v -0.665532 0.854756 -0.134711
v -0.692872 0.849079 -0.583895
v -0.669320 0.849079 -0.134512
v -0.698541 0.845286 -0.583598
v -0.674990 0.845286 -0.134215
v -0.705229 0.843953 -0.583248
v -0.681678 0.843953 -0.133865
v -0.711917 0.845286 -0.582897
v -0.688366 0.845286 -0.133514
v -0.717587 0.849079 -0.582600
v -0.694035 0.849079 -0.133217
v -0.721375 0.854756 -0.582402
v -0.697824 0.854756 -0.133018
v -0.722705 0.861453 -0.582332
v -0.699154 0.861453 -0.132949
v -0.721375 0.868150 -0.582402
v -0.697824 0.868150 -0.133018
v -0.717587 0.873828 -0.582600
v -0.694035 0.873828 -0.133217
v -0.711917 0.877621 -0.582897
v -0.688366 0.877621 -0.133514
v -0.705229 0.878953 -0.583248
v -0.681678 0.878953 -0.133865
v -0.698541 0.877621 -0.583598
v -0.674990 0.877621 -0.134215
v -0.692872 0.873828 -0.583895
v -0.669320 0.873828 -0.134512
v -0.689083 0.868150 -0.584094
v -0.665532 0.868150 -0.134711
v -0.682518 0.852309 -0.137805
v -0.701444 0.852309 -0.116785
v -0.681471 0.872309 -0.117832
v -0.702491 0.852309 -0.136758
v -0.681471 0.852309 -0.117832
v -0.682518 0.872309 -0.137805
v -0.352970 0.829509 -0.155076
v -0.351924 0.847109 -0.135103
v -0.331951 0.829509 -0.136150
v -0.351924 0.829509 -0.135103
v -0.332998 0.829509 -0.156122
v -0.352970 0.847109 -0.155076
v -0.682518 0.472309 -0.137805
v -0.681471 0.452309 -0.117832
v -0.701444 0.472309 -0.116785
v -0.681471 0.472309 -0.117832
v -0.702491 0.472309 -0.136758
v -0.682518 0.452309 -0.137805
v -0.352970 0.495109 -0.155076
v -0.331951 0.495109 -0.136150
v -0.351924 0.477509 -0.135103
v -0.351924 0.495109 -0.135103
v -0.352970 0.477509 -0.155076
v -0.332998 0.495109 -0.156122
v -0.517744 0.840909 -0.146440
v -0.516698 0.859709 -0.126468
v -0.516698 0.840909 -0.126468
v -0.517744 0.859709 -0.146440
v -0.517744 0.483709 -0.146440
v -0.516698 0.464909 -0.126468
v -0.516698 0.483709 -0.126468
v -0.517744 0.464909 -0.146440
v -0.696559 0.462074 -0.580014
v -0.673008 0.462074 -0.130631
v -0.697889 0.455377 -0.579944
v -0.674338 0.455377 -0.130561
v -0.701677 0.449700 -0.579746
v -0.678126 0.449700 -0.130362
v -0.707347 0.445906 -0.579449
v -0.683796 0.445906 -0.130065
v -0.714035 0.444574 -0.579098
v -0.690484 0.444574 -0.129715
v -0.720723 0.445906 -0.578748
v -0.697171 0.445906 -0.129364
v -0.726392 0.449700 -0.578451
v -0.702841 0.449700 -0.129067
v -0.730181 0.455377 -0.578252
v -0.706629 0.455377 -0.128869
v -0.731511 0.462074 -0.578182
v -0.707960 0.462074 -0.128799
v -0.730181 0.468771 -0.578252
v -0.706629 0.468771 -0.128869
v -0.726392 0.474448 -0.578451
v -0.702841 0.474448 -0.129067
v -0.720723 0.478242 -0.578748
v -0.697171 0.478242 -0.129364
v -0.714035 0.479574 -0.579098
v -0.690484 0.479574 -0.129715
v -0.707347 0.478242 -0.579449
v -0.683796 0.478242 -0.130065
v -0.701677 0.474448 -0.579746
v -0.678126 0.474448 -0.130362
v -0.697889 0.468771 -0.579944
v -0.674338 0.468771 -0.130561
v -0.333056 0.846461 -0.584637
v -0.338411 0.846461 -0.134271
v -0.334387 0.839764 -0.584567
v -0.339709 0.839764 -0.133972
v -0.338175 0.834087 -0.584369
v -0.343405 0.834087 -0.133118
v -0.343845 0.830293 -0.584071
v -0.348937 0.830293 -0.131841
v -0.350532 0.828961 -0.583721
v -0.355463 0.828961 -0.130335
v -0.357220 0.830293 -0.583370
v -0.361988 0.830293 -0.128828
v -0.362890 0.834087 -0.583073
v -0.367520 0.834087 -0.127551
v -0.366678 0.839764 -0.582875
v -0.371216 0.839764 -0.126698
v -0.368008 0.846461 -0.582805
v -0.372514 0.846461 -0.126398
v -0.366678 0.853158 -0.582875
v -0.371216 0.853158 -0.126698
v -0.362890 0.858836 -0.583073
v -0.367520 0.858836 -0.127551
v -0.357220 0.862629 -0.583370
v -0.361988 0.862629 -0.128828
v -0.350532 0.863961 -0.583721
v -0.355463 0.863961 -0.130335
v -0.343845 0.862629 -0.584071
v -0.348937 0.862629 -0.131841
v -0.338175 0.858836 -0.584369
v -0.343405 0.858836 -0.133118
v -0.334387 0.853158 -0.584567
v -0.339709 0.853158 -0.133972
v -0.265475 0.839764 0.187570
v -0.264177 0.846461 0.187271
v -0.269172 0.834087 0.188424
v -0.274704 0.830293 0.189701
v -0.281229 0.828961 0.191207
v -0.287754 0.830293 0.192714
v -0.293286 0.834087 0.193991
v -0.296982 0.839764 0.194844
v -0.298280 0.846461 0.195144
v -0.296982 0.853158 0.194844
v -0.293286 0.858836 0.193991
v -0.287754 0.862629 0.192714
v -0.281229 0.863961 0.191207
v -0.274704 0.862629 0.189701
v -0.269172 0.858836 0.188424
v -0.265475 0.853158 0.187570
v -0.333056 0.476461 -0.584637
v -0.338411 0.476461 -0.134271
v -0.334387 0.469764 -0.584567
v -0.339709 0.469764 -0.133972
v -0.338175 0.464087 -0.584369
v -0.343405 0.464087 -0.133118
v -0.343845 0.460293 -0.584071
v -0.348937 0.460293 -0.131841
v -0.350532 0.458961 -0.583721
v -0.355463 0.458961 -0.130335
v -0.357220 0.460293 -0.583370
v -0.361988 0.460293 -0.128828
v -0.362890 0.464087 -0.583073
v -0.367520 0.464087 -0.127551
v -0.366678 0.469764 -0.582875
v -0.371216 0.469764 -0.126698
v -0.368008 0.476461 -0.582805
v -0.372514 0.476461 -0.126398
v -0.366678 0.483158 -0.582875
v -0.371216 0.483158 -0.126698
v -0.362890 0.488836 -0.583073
v -0.367520 0.488836 -0.127551
v -0.357220 0.492629 -0.583370
v -0.361988 0.492629 -0.128828
v -0.350532 0.493961 -0.583721
v -0.355463 0.493961 -0.130335
v -0.343845 0.492629 -0.584071
v -0.348937 0.492629 -0.131841
v -0.338175 0.488836 -0.584369
v -0.343405 0.488836 -0.133118
v -0.334387 0.483158 -0.584567
v -0.339709 0.483158 -0.133972
v -0.265475 0.469764 0.187570
v -0.264177 0.476461 0.187271
v -0.269172 0.464087 0.188424
v -0.274704 0.460293 0.189701
v -0.281229 0.458961 0.191207
v -0.287754 0.460293 0.192714
v -0.293286 0.464087 0.193991
v -0.296982 0.469764 0.194844
v -0.298280 0.476461 0.195144
v -0.296982 0.483158 0.194844
v -0.293286 0.488836 0.193991
v -0.287754 0.492629 0.192714
v -0.281229 0.493961 0.191207
v -0.274704 0.492629 0.189701
v -0.269172 0.488836 0.188424
v -0.265475 0.483158 0.187570
v -0.706656 0.872061 -0.412874
v -0.705086 0.872061 -0.382915
v -0.367122 0.872061 -0.430668
v -0.365552 0.872061 -0.400710
v -0.706656 0.842061 -0.412874
v -0.705086 0.842061 -0.382915
v -0.367122 0.842061 -0.430668
v -0.365552 0.842061 -0.400710
v -0.706147 0.480779 -0.414267
v -0.704577 0.480779 -0.384308
v -0.336654 0.480779 -0.433631
v -0.335084 0.480779 -0.403672
v -0.706147 0.450779 -0.414267
v -0.704577 0.450779 -0.384308
v -0.336654 0.450779 -0.433631
v -0.335084 0.450779 -0.403672
v -0.300197 0.473801 0.128389
v -0.298627 0.473801 0.158347
v -0.300197 0.843801 0.128389
v -0.298627 0.843801 0.158347
v -0.270238 0.473801 0.126818
v -0.268668 0.473801 0.156777
v -0.270238 0.843801 0.126818
v -0.268668 0.843801 0.156777
v -0.357220 0.473879 -0.052576
v -0.355650 0.473879 -0.022617
v -0.357220 0.843879 -0.052576
v -0.355650 0.843879 -0.022617
v -0.327261 0.473879 -0.054146
v -0.325691 0.473879 -0.024187
v -0.327261 0.843879 -0.054146
v -0.325691 0.843879 -0.024187
v -0.327068 0.762530 -0.040050
v -0.327068 0.742530 -0.040050
v -0.282078 0.762530 0.154824
v -0.282078 0.742530 0.154824
v -0.307581 0.762530 -0.044549
v -0.307581 0.742530 -0.044549
v -0.262591 0.762530 0.150325
v -0.262591 0.742530 0.150325
v -0.327445 0.673203 -0.044273
v -0.327445 0.653203 -0.044273
v -0.282454 0.673203 0.150601
v -0.282454 0.653203 0.150601
v -0.307957 0.673203 -0.048772
v -0.307957 0.653203 -0.048772
v -0.262967 0.673203 0.146102
v -0.262967 0.653203 0.146102
v -0.320709 0.572958 -0.036197
v -0.320709 0.552958 -0.036197
v -0.275719 0.572958 0.158677
v -0.275719 0.552958 0.158677
v -0.301222 0.572958 -0.040696
v -0.301222 0.552958 -0.040696
v -0.256232 0.572958 0.154178
v -0.256232 0.552958 0.154178
v -0.396849 0.478541 -0.179061
v -0.395279 0.478541 -0.149102
v -0.396849 0.848541 -0.179061
v -0.395279 0.848541 -0.149102
v -0.366890 0.478541 -0.180631
v -0.365320 0.478541 -0.150672
v -0.366890 0.848541 -0.180631
v -0.365320 0.848541 -0.150672
v -0.712970 0.470003 -0.158263
v -0.711400 0.470003 -0.128304
v -0.712970 0.860003 -0.158263
v -0.711400 0.860003 -0.128304
v -0.683011 0.470003 -0.159833
v -0.681441 0.470003 -0.129874
v -0.683011 0.860003 -0.159833
v -0.681441 0.860003 -0.129874
v -0.711512 0.469710 -0.157905
v -0.709942 0.469710 -0.127946
v -0.342919 0.495520 -0.177222
v -0.341349 0.495520 -0.147263
v -0.709422 0.439783 -0.158014
v -0.707852 0.439783 -0.128056
v -0.340829 0.465593 -0.177332
v -0.339259 0.465593 -0.147373
v -0.710563 0.881620 -0.159304
v -0.708993 0.881620 -0.129345
v -0.341970 0.855810 -0.178621
v -0.340400 0.855810 -0.148662
v -0.712653 0.851693 -0.159195
v -0.711082 0.851693 -0.129236
v -0.344060 0.825883 -0.178512
v -0.342490 0.825883 -0.148553
v -0.341970 0.855810 -0.178621
v -0.710563 0.881620 -0.159304
v -0.708993 0.881620 -0.129345
v -0.340400 0.855810 -0.148662
v -0.344060 0.825883 -0.178512
v -0.342490 0.825883 -0.148553
v -0.711082 0.851693 -0.129236
v -0.341970 0.855810 -0.178621
v -0.344060 0.825883 -0.178512
v -0.342490 0.825883 -0.148553
v -0.341970 0.855810 -0.178621
v -0.710563 0.881620 -0.159304
v -0.710563 0.881620 -0.159304
v -0.344060 0.825883 -0.178512
v -0.342490 0.825883 -0.148553
v -0.712653 0.851693 -0.159195
v -0.711082 0.851693 -0.129236
v -0.341970 0.855810 -0.178621
v -0.708993 0.881620 -0.129345
v -0.340400 0.855810 -0.148662
v -0.342490 0.825883 -0.148553
v -0.711082 0.851693 -0.129236
v -0.340400 0.855810 -0.148662
v -0.341970 0.855810 -0.178621
v -0.344060 0.825883 -0.178512
v -0.342490 0.825883 -0.148553
v -0.341970 0.855810 -0.178621
v -0.710563 0.881620 -0.159304
v -0.710563 0.881620 -0.159304
v -0.344060 0.825883 -0.178512
v -0.342490 0.825883 -0.148553
v -0.712653 0.851693 -0.159195
v -0.711082 0.851693 -0.129236
v -0.341970 0.855810 -0.178621
v -0.708993 0.881620 -0.129345
v -0.340400 0.855810 -0.148662
v -0.342490 0.825883 -0.148553
v -0.711082 0.851693 -0.129236
v -0.340400 0.855810 -0.148662
v -0.341970 0.855810 -0.178621
v -0.344060 0.825883 -0.178512
v -0.342490 0.825883 -0.148553
v -0.378177 0.828382 -0.146682
v -0.378177 0.828382 -0.146682
v -0.378177 0.828382 -0.146682
v -0.378177 0.828382 -0.146682
v -0.377658 0.858309 -0.176751
v -0.379748 0.828382 -0.176641
v -0.378177 0.828382 -0.146682
v -0.377658 0.858309 -0.176751
v -0.376088 0.858309 -0.146792
v -0.378177 0.828382 -0.146682
v -0.417340 0.831124 -0.144630
v -0.417340 0.831124 -0.144630
v -0.417340 0.831124 -0.144630
v -0.417340 0.831124 -0.144630
v -0.416821 0.861051 -0.174698
v -0.417340 0.831124 -0.144630
v -0.416821 0.861051 -0.174698
v -0.417340 0.831124 -0.144630
v -0.418911 0.831124 -0.174589
v -0.415251 0.861051 -0.144740
v -0.468579 0.834712 -0.141945
v -0.468579 0.834712 -0.141945
v -0.468579 0.834712 -0.141945
v -0.468579 0.834712 -0.141945
v -0.468059 0.864639 -0.172013
v -0.468579 0.834712 -0.141945
v -0.468059 0.864639 -0.172013
v -0.468579 0.834712 -0.141945
v -0.470149 0.834712 -0.171904
v -0.466489 0.864639 -0.142054
v -0.517800 0.838159 -0.139365
v -0.517800 0.838159 -0.139365
v -0.517800 0.838159 -0.139365
v -0.517800 0.838159 -0.139365
v -0.517281 0.868086 -0.169434
v -0.517800 0.838159 -0.139365
v -0.517281 0.868086 -0.169434
v -0.517800 0.838159 -0.139365
v -0.519370 0.838159 -0.169324
v -0.515710 0.868086 -0.139475
v -0.557031 0.840906 -0.137309
v -0.557031 0.840906 -0.137309
v -0.557031 0.840906 -0.137309
v -0.557031 0.840906 -0.137309
v -0.556512 0.870833 -0.167378
v -0.557031 0.840906 -0.137309
v -0.556512 0.870833 -0.167378
v -0.557031 0.840906 -0.137309
v -0.558601 0.840906 -0.167268
v -0.554942 0.870833 -0.137419
v -0.588300 0.843095 -0.135670
v -0.588300 0.843095 -0.135670
v -0.588300 0.843095 -0.135670
v -0.588300 0.843095 -0.135670
v -0.587780 0.873022 -0.165739
v -0.588300 0.843095 -0.135670
v -0.587780 0.873022 -0.165739
v -0.588300 0.843095 -0.135670
v -0.589870 0.843095 -0.165629
v -0.586210 0.873022 -0.135780
v -0.613221 0.844841 -0.134364
v -0.613221 0.844841 -0.134364
v -0.613221 0.844841 -0.134364
v -0.613221 0.844841 -0.134364
v -0.612701 0.874767 -0.164433
v -0.613221 0.844841 -0.134364
v -0.612701 0.874767 -0.164433
v -0.613221 0.844841 -0.134364
v -0.614791 0.844841 -0.164323
v -0.611131 0.874767 -0.134474
vn 0.9794 -0.1951 -0.0513
vn 0.8303 -0.5556 -0.0435
vn 0.5548 -0.8315 -0.0291
vn 0.1948 -0.9808 -0.0102
vn -0.1948 -0.9808 0.0102
vn -0.5548 -0.8315 0.0291
vn -0.8303 -0.5556 0.0435
vn -0.9794 -0.1951 0.0513
vn -0.9794 0.1951 0.0513
vn -0.8303 0.5556 0.0435
vn -0.5548 0.8315 0.0291
vn -0.1948 0.9808 0.0102
vn 0.1948 0.9808 -0.0102
vn 0.5548 0.8315 -0.0291
vn 0.0523 -0.0000 0.9986
vn 0.8303 0.5556 -0.0435
vn 0.9794 0.1951 -0.0513
vn -0.0523 -0.0000 -0.9986
vn 0.9986 -0.0000 -0.0523
vn -0.0760 0.9971 0.0040
vn -0.0760 -0.9971 0.0040
vn -0.9986 -0.0000 0.0523
vn -0.6068 0.5773 -0.5463
vn -0.5463 0.5774 0.6068
vn 0.5216 0.6264 -0.5793
vn 0.5793 0.6264 0.5216
vn -0.6068 -0.5773 -0.5463
vn -0.5463 -0.5773 0.6068
vn 0.5216 -0.6264 -0.5793
vn 0.5793 -0.6264 0.5216
vn 0.0144 0.7277 -0.6857
vn 0.7061 -0.7071 -0.0370
vn 0.0913 0.7275 0.6800
vn -0.6597 -0.7507 0.0346
vn 0.6691 -0.0000 -0.7431
vn 0.7431 -0.0000 0.6691
vn -0.6597 0.7507 0.0346
vn 0.0197 -0.7275 -0.6858
vn 0.0860 -0.7277 0.6805
vn 0.7061 0.7071 -0.0370
vn -0.7431 -0.0000 -0.6691
vn -0.6691 -0.0000 0.7431
vn 0.0863 -0.7497 0.6561
vn 0.0169 -0.7061 -0.7079
vn 0.0908 0.7061 0.7023
vn 0.0172 0.7497 -0.6615
vn 0.9808 -0.1947 0.0117
vn 0.8319 -0.5548 0.0098
vn 0.5563 -0.8309 0.0064
vn 0.1955 -0.9807 0.0022
vn -0.1955 -0.9807 -0.0021
vn -0.5563 -0.8310 -0.0058
vn -0.8319 -0.5548 -0.0085
vn -0.9808 -0.1947 -0.0098
vn -0.9808 0.1947 -0.0098
vn -0.8319 0.5548 -0.0085
vn -0.5563 0.8310 -0.0058
vn -0.1955 0.9807 -0.0021
vn 0.1955 0.9807 0.0022
vn 0.5563 0.8309 0.0064
vn -0.1901 -0.9808 0.0439
vn 0.8319 0.5548 0.0098
vn 0.9808 0.1947 0.0117
vn 0.2249 -0.0000 0.9744
vn -0.8102 0.5556 0.1870
vn 0.8102 0.5556 -0.1870
vn 0.5413 -0.8315 -0.1250
vn -0.9556 -0.1951 0.2206
vn 0.9556 -0.1951 -0.2206
vn 0.1901 0.9808 -0.0439
vn -0.5413 -0.8315 0.1250
vn -0.5413 0.8315 0.1250
vn 0.9556 0.1951 -0.2206
vn 0.1901 -0.9808 -0.0439
vn -0.9556 0.1951 0.2206
vn 0.5413 0.8315 -0.1250
vn 0.8102 -0.5556 -0.1870
vn -0.8102 -0.5556 0.1870
vn -0.1901 0.9808 0.0439
vn 0.9557 0.1951 -0.2206
vn -0.0000 1.0000 -0.0000
vn -0.0000 -1.0000 -0.0000
vn -0.9744 -0.0000 0.2250
vn 0.2250 -0.0000 0.9744
vn 0.9744 -0.0000 -0.2250
vn -0.2250 -0.0000 -0.9744
vn -0.0697 0.9976 0.0037
vn 0.9962 0.0698 -0.0522
vn 0.0697 -0.9976 -0.0037
vn -0.9962 -0.0698 0.0522
vn -0.0000 -0.0000 1.0000
vn -0.9962 0.0698 0.0522
vn -0.0697 -0.9976 0.0037
vn 0.0697 0.9976 -0.0037
vn 0.9962 -0.0698 -0.0522
vn 0.0169 0.7061 -0.7079
vn 0.0863 0.7497 0.6561
vn 0.0172 -0.7497 -0.6615
vn 0.0908 -0.7061 0.7023
vn 0.0913 -0.7275 0.6800
vn 0.0144 -0.7277 -0.6857
vn 0.0860 0.7277 0.6805
vn 0.0197 0.7275 -0.6858
vn 0.9818 -0.1898 0.0116
vn 0.8387 -0.5446 0.0097
vn 0.5665 -0.8240 0.0064
vn 0.2005 -0.9797 0.0022
vn -0.2005 -0.9797 -0.0021
vn -0.5664 -0.8241 -0.0058
vn -0.8386 -0.5447 -0.0083
vn -0.9818 -0.1899 -0.0097
vn -0.9818 0.1899 -0.0097
vn -0.8386 0.5447 -0.0083
vn -0.5664 0.8241 -0.0058
vn -0.2005 0.9797 -0.0021
vn 0.2005 0.9797 0.0022
vn 0.5665 0.8240 0.0064
vn 0.8387 0.5446 0.0097
vn 0.9818 0.1898 0.0116
vn 0.2250 0.0001 0.9744
vn 0.2250 -0.0001 0.9744
vn -0.9818 -0.1898 -0.0097
vn -0.5665 0.8241 -0.0058
vn 0.2249 0.0001 0.9744
vt 0.290304 0.888889
vt 0.290683 0.913889
vt 0.290304 0.913889
vt 0.290683 0.888889
vt 0.291034 0.913889
vt 0.295079 0.913889
vt 0.295348 0.888889
vt 0.295348 0.913889
vt 0.295698 0.913889
vt 0.296078 0.888889
vt 0.296078 0.913889
vt 0.296428 0.913889
vt 0.291034 0.913889
vt 0.291302 0.888889
vt 0.291302 0.913889
vt 0.291653 0.913889
vt 0.292032 0.888889
vt 0.292032 0.913889
vt 0.292382 0.913889
vt 0.296428 0.888889
vt 0.296696 0.913889
vt 0.297047 0.888889
vt 0.297047 0.913889
vt 0.297426 0.888889
vt 0.297426 0.913889
vt 0.297777 0.888889
vt 0.297777 0.913889
vt 0.308640 0.889034
vt 0.308908 0.890383
vt 0.307560 0.890651
vt 0.289685 0.888889
vt 0.289954 0.913889
vt 0.289685 0.913889
vt 0.289954 0.888889
vt 0.310815 0.889302
vt 0.310547 0.890651
vt 0.309198 0.890383
vt 1.000000 0.025818
vt 0.974617 0.516368
vt 0.974617 0.025818
vt 0.082853 0.750637
vt 0.057470 0.921286
vt 0.057470 0.750637
vt 0.234795 0.501652
vt 0.025383 0.025818
vt 0.234795 0.040535
vt 0.971265 0.170649
vt 0.945882 0.341298
vt 0.945882 0.170649
vt 0.971265 0.375690
vt 0.945882 0.660872
vt 0.945882 0.375690
vt 0.086204 0.577880
vt 0.086204 0.545596
vt 0.114854 0.567472
vt 0.118206 0.577880
vt 0.118206 0.545596
vt 0.146855 0.556003
vt 0.025383 0.977280
vt 0.000000 1.000000
vt 0.000000 0.977280
vt 0.028735 0.977280
vt 0.054118 0.977280
vt 0.054118 1.000000
vt 0.150207 0.576540
vt 0.150207 0.545596
vt 0.180098 0.565681
vt 0.183449 0.545596
vt 0.213340 0.556454
vt 0.183449 0.576540
vt 0.917147 0.486935
vt 0.942530 0.486935
vt 0.917147 0.509656
vt 0.444206 0.055251
vt 0.444206 0.032531
vt 0.469589 0.055251
vt 0.498324 0.025818
vt 0.707736 0.016266
vt 0.707736 0.040535
vt 1.000000 0.542187
vt 0.974617 0.542187
vt 0.444206 0.509656
vt 0.234795 0.525921
vt 0.971265 0.341298
vt 0.000000 0.545596
vt 0.025383 0.545596
vt 0.028735 0.545596
vt 0.082853 0.579988
vt 0.057470 0.545596
vt 0.082853 0.545596
vt 0.707736 0.501652
vt 0.707736 0.525921
vt 0.234795 0.016266
vt 1.000000 0.000000
vt 0.498324 0.516368
vt 0.472941 0.025818
vt 0.025383 0.516368
vt 0.000000 0.025818
vt 0.917147 0.055251
vt 0.498324 0.542187
vt 0.025383 0.542187
vt 0.917147 0.032531
vt 0.945882 0.000000
vt 0.444206 0.486935
vt 0.057470 0.579988
vt 0.287607 0.888889
vt 0.287986 0.913889
vt 0.287607 0.913889
vt 0.287986 0.888889
vt 0.288337 0.913889
vt 0.292382 0.888889
vt 0.292651 0.913889
vt 0.292382 0.913889
vt 0.292651 0.888889
vt 0.293001 0.913889
vt 0.293380 0.888889
vt 0.293380 0.913889
vt 0.293731 0.913889
vt 0.288337 0.888889
vt 0.288605 0.913889
vt 0.288605 0.888889
vt 0.288956 0.913889
vt 0.289335 0.888889
vt 0.289335 0.913889
vt 0.293731 0.888889
vt 0.293999 0.913889
vt 0.293731 0.913889
vt 0.293999 0.888889
vt 0.294350 0.913889
vt 0.294350 0.888889
vt 0.294729 0.913889
vt 0.295079 0.888889
vt 0.304826 0.889034
vt 0.305094 0.890383
vt 0.303746 0.890651
vt 0.286988 0.913889
vt 0.287257 0.888889
vt 0.287257 0.913889
vt 0.307001 0.889302
vt 0.306733 0.890651
vt 0.305384 0.890383
vt 0.284080 0.907128
vt 0.284768 0.931984
vt 0.284417 0.931976
vt 0.284430 0.907122
vt 0.285036 0.931998
vt 0.273880 0.907245
vt 0.271606 0.932184
vt 0.271255 0.932171
vt 0.274228 0.907203
vt 0.271985 0.932200
vt 0.274604 0.907154
vt 0.272335 0.932217
vt 0.279515 0.907169
vt 0.279447 0.932264
vt 0.279179 0.932249
vt 0.279783 0.907129
vt 0.279798 0.932273
vt 0.280133 0.907101
vt 0.280177 0.932273
vt 0.280862 0.907094
vt 0.280528 0.932266
vt 0.281131 0.907116
vt 0.280796 0.932251
vt 0.266215 0.932259
vt 0.263947 0.907135
vt 0.266565 0.932246
vt 0.264324 0.907184
vt 0.266944 0.932230
vt 0.264671 0.907232
vt 0.267294 0.932214
vt 0.283419 0.931999
vt 0.283351 0.907086
vt 0.283687 0.931985
vt 0.272593 0.888930
vt 0.274952 0.907106
vt 0.283701 0.907115
vt 0.284038 0.931977
vt 0.312722 0.889302
vt 0.312454 0.890651
vt 0.311106 0.890383
vt 0.314011 0.888889
vt 0.314775 0.890032
vt 0.313631 0.890796
vt 0.263333 0.907065
vt 0.265957 0.888917
vt 0.263600 0.907093
vt 0.284306 0.888917
vt 0.271870 0.889027
vt 0.280512 0.907088
vt 0.279529 0.888901
vt 0.279908 0.888889
vt 0.285036 0.888925
vt 0.267029 0.889056
vt 0.275217 0.907065
vt 0.272859 0.888889
vt 0.266305 0.888959
vt 0.284685 0.888930
vt 0.272246 0.888978
vt 0.280259 0.888894
vt 0.264937 0.907273
vt 0.267294 0.889097
vt 0.271255 0.889097
vt 0.271522 0.889069
vt 0.266681 0.889008
vt 0.286032 0.907127
vt 0.286720 0.931984
vt 0.286370 0.931976
vt 0.286383 0.907122
vt 0.286988 0.931998
vt 0.277842 0.907245
vt 0.275567 0.932185
vt 0.275217 0.932171
vt 0.278190 0.907203
vt 0.275946 0.932200
vt 0.278566 0.907154
vt 0.276297 0.932217
vt 0.281467 0.907169
vt 0.281399 0.932264
vt 0.281131 0.932249
vt 0.281735 0.907129
vt 0.281750 0.932273
vt 0.282085 0.907101
vt 0.282129 0.932273
vt 0.282814 0.907094
vt 0.282480 0.932266
vt 0.283083 0.907116
vt 0.282748 0.932251
vt 0.270176 0.932259
vt 0.267909 0.907135
vt 0.270526 0.932246
vt 0.268285 0.907184
vt 0.270905 0.932230
vt 0.268632 0.907232
vt 0.271255 0.932214
vt 0.285372 0.931999
vt 0.285303 0.907086
vt 0.285640 0.931985
vt 0.276555 0.888930
vt 0.278913 0.907106
vt 0.285653 0.907115
vt 0.285990 0.931976
vt 0.316536 0.889302
vt 0.316268 0.890651
vt 0.314920 0.890383
vt 0.317825 0.888889
vt 0.318589 0.890032
vt 0.317445 0.890796
vt 0.267561 0.907093
vt 0.269652 0.888889
vt 0.269919 0.888917
vt 0.286259 0.888917
vt 0.275484 0.889069
vt 0.275831 0.889027
vt 0.281860 0.888889
vt 0.282464 0.907088
vt 0.286988 0.888925
vt 0.270990 0.889056
vt 0.276821 0.888889
vt 0.279179 0.907065
vt 0.270266 0.888959
vt 0.286638 0.888930
vt 0.276208 0.888978
vt 0.282211 0.888894
vt 0.271255 0.889097
vt 0.268898 0.907273
vt 0.277576 0.907273
vt 0.281131 0.888930
vt 0.281481 0.888901
vt 0.270643 0.889008
vt 0.000000 0.111111
vt 0.111111 0.000000
vt 0.111111 0.111111
vt 0.000000 0.222222
vt 0.111111 0.111111
vt 0.111111 0.222222
vt 0.111111 0.111111
vt 0.222222 0.000000
vt 0.222222 0.111111
vt 0.111111 0.222222
vt 0.222222 0.111111
vt 0.222222 0.222222
vt 0.111111 0.333333
vt 0.000000 0.222222
vt 0.111111 0.222222
vt 0.222222 0.333333
vt 0.111111 0.222222
vt 0.222222 0.222222
vt 0.222222 0.111111
vt 0.333333 0.000000
vt 0.333333 0.111111
vt 0.222222 0.222222
vt 0.333333 0.111111
vt 0.333333 0.222222
vt 0.222222 0.333333
vt 0.333333 0.333333
vt -0.000000 0.444444
vt 0.111111 0.333333
vt 0.111111 0.444444
vt 0.222222 0.444444
vt 0.111111 0.333333
vt 0.222222 0.333333
vt 0.333333 0.444444
vt 0.333333 0.333333
vt 0.333333 0.111111
vt 0.444444 0.000000
vt 0.444444 0.111111
vt 0.444444 0.222222
vt 0.333333 0.111111
vt 0.444444 0.111111
vt 0.333333 0.333333
vt 0.444444 0.222222
vt 0.444444 0.333333
vt 0.333333 0.444444
vt 0.444444 0.333333
vt 0.444444 0.444444
vt 0.111111 0.555556
vt 0.000000 0.444444
vt 0.111111 0.444444
vt 0.222222 0.555556
vt 0.111111 0.444444
vt 0.222222 0.444444
vt 0.222222 0.555556
vt 0.333333 0.444444
vt 0.333333 0.555556
vt 0.333333 0.555556
vt 0.444444 0.444444
vt 0.444444 0.555556
vt 0.555556 0.000000
vt 0.555556 0.111111
vt 0.555556 0.222222
vt 0.444444 0.111111
vt 0.555556 0.111111
vt 0.555556 0.333333
vt 0.555556 0.222222
vt 0.555556 0.444444
vt 0.444444 0.333333
vt 0.555556 0.333333
vt 0.444444 0.555556
vt 0.555556 0.444444
vt 0.555556 0.555556
vt 0.000000 0.666667
vt 0.111111 0.666667
vt 0.111111 0.666667
vt 0.222222 0.666667
vt 0.222222 0.666667
vt 0.333333 0.555556
vt 0.333333 0.666667
vt 0.444444 0.666667
vt 0.555556 0.666667
vt 0.555556 0.111111
vt 0.666667 0.000000
vt 0.666667 0.111111
vt 0.666667 0.111111
vt 0.666667 0.222222
vt 0.555556 0.333333
vt 0.666667 0.333333
vt 0.666667 0.333333
vt 0.666667 0.444444
vt 0.666667 0.555556
vt 0.000000 0.777778
vt 0.111111 0.666667
vt 0.111111 0.777778
vt 0.111111 0.777778
vt 0.222222 0.777778
vt 0.333333 0.777778
vt 0.333333 0.777778
vt 0.444444 0.777778
vt 0.555556 0.777778
vt 0.666667 0.777778
vt 0.666667 0.666667
vt 0.777778 0.000000
vt 0.777778 0.111111
vt 0.777778 0.111111
vt 0.777778 0.222222
vt 0.777778 0.333333
vt 0.777778 0.333333
vt 0.777778 0.444444
vt 0.777778 0.555556
vt 0.777778 0.666667
vt 0.777778 0.777778
vt 0.111111 0.888889
vt 0.000000 0.777778
vt 0.111111 0.777778
vt 0.111111 0.888889
vt 0.222222 0.777778
vt 0.222222 0.888889
vt 0.222222 0.888889
vt 0.333333 0.888889
vt 0.444444 0.888889
vt 0.555556 0.888889
vt 0.666667 0.888889
vt 0.777778 0.888889
vt 0.777778 0.111111
vt 0.888889 0.000000
vt 0.888889 0.111111
vt 0.777778 0.222222
vt 0.888889 0.111111
vt 0.888889 0.222222
vt 0.888889 0.333333
vt 0.888889 0.222222
vt 0.888889 0.333333
vt 0.323714 0.888889
vt 0.888889 0.444444
vt 0.888889 0.555556
vt 0.888889 0.585056
vt 0.807278 0.777778
vt 0.807278 0.666667
vt 0.888889 0.788536
vt 0.888889 0.777778
vt 0.029500 0.888889
vt 0.000000 1.000000
vt 0.000000 0.888889
vt 0.111111 1.000000
vt 0.222222 0.888889
vt 0.222222 1.000000
vt 0.111111 1.000000
vt 0.100353 0.888889
vt 0.111111 0.888889
vt 0.888889 0.800341
vt 0.777778 0.788536
vt 0.888889 0.666667
vt 0.878131 0.777778
vt 0.878131 0.666667
vt 0.888889 0.655909
vt 0.888889 0.815787
vt 0.777778 0.800341
vt 0.100353 1.000000
vt 0.088548 0.888889
vt 0.866325 0.666667
vt 0.777778 0.655909
vt 0.888889 0.644103
vt 0.888889 0.830625
vt 0.777778 0.815787
vt 0.088548 1.000000
vt 0.073102 0.888889
vt 0.850880 0.777778
vt 0.850880 0.666667
vt 0.777778 0.644103
vt 0.888889 0.628658
vt 0.777778 0.842451
vt 0.888889 0.842451
vt 0.073102 1.000000
vt 0.058264 0.888889
vt 0.836042 0.666667
vt 0.777778 0.628658
vt 0.888889 0.613820
vt 0.777778 0.851876
vt 0.888889 0.851876
vt 0.058264 1.000000
vt 0.046438 0.888889
vt 0.824216 0.777778
vt 0.824216 0.666667
vt 0.777778 0.613820
vt 0.888889 0.601994
vt 0.777778 0.859389
vt 0.888889 0.859389
vt 0.046438 1.000000
vt 0.037013 0.888889
vt 0.814790 0.666667
vt 0.777778 0.601994
vt 0.888889 0.592568
vt 0.888889 0.888889
vt 0.037013 1.000000
vt 0.777778 0.592568
vt 0.291034 0.888889
vt 0.295698 0.888889
vt 0.291034 0.888889
vt 0.291653 0.888889
vt 0.292382 0.888889
vt 0.296696 0.888889
vt 0.307291 0.890383
vt 0.307146 0.890032
vt 0.307146 0.889653
vt 0.307291 0.889302
vt 0.307560 0.889034
vt 0.307910 0.888889
vt 0.308289 0.888889
vt 0.308908 0.889302
vt 0.309053 0.889653
vt 0.309053 0.890032
vt 0.308640 0.890651
vt 0.308289 0.890796
vt 0.307910 0.890796
vt 0.309198 0.889302
vt 0.309467 0.889034
vt 0.309817 0.888889
vt 0.310197 0.888889
vt 0.310547 0.889034
vt 0.310960 0.889653
vt 0.310960 0.890032
vt 0.310815 0.890383
vt 0.310197 0.890796
vt 0.309817 0.890796
vt 0.309467 0.890651
vt 1.000000 0.516368
vt 0.082853 0.921286
vt 0.971265 0.660872
vt 0.498324 0.000000
vt 0.054118 0.545596
vt 0.025383 0.000000
vt 0.974617 0.000000
vt 0.472941 0.516368
vt 0.000000 0.516368
vt 0.971265 0.000000
vt 0.293001 0.888889
vt 0.293731 0.888889
vt 0.288956 0.888889
vt 0.294729 0.888889
vt 0.303477 0.890383
vt 0.303332 0.890032
vt 0.303332 0.889653
vt 0.303477 0.889302
vt 0.303746 0.889034
vt 0.304096 0.888889
vt 0.304475 0.888889
vt 0.305094 0.889302
vt 0.305239 0.889653
vt 0.305239 0.890032
vt 0.304826 0.890651
vt 0.304475 0.890796
vt 0.304096 0.890796
vt 0.286988 0.888889
vt 0.305239 0.890032
vt 0.305239 0.889653
vt 0.305384 0.889302
vt 0.305653 0.889034
vt 0.306003 0.888889
vt 0.306382 0.888889
vt 0.306733 0.889034
vt 0.307146 0.889653
vt 0.307146 0.890032
vt 0.307001 0.890383
vt 0.306382 0.890796
vt 0.306003 0.890796
vt 0.305653 0.890651
vt 0.284699 0.907100
vt 0.283083 0.907046
vt 0.310960 0.889653
vt 0.311106 0.889302
vt 0.311374 0.889034
vt 0.311724 0.888889
vt 0.312104 0.888889
vt 0.312454 0.889034
vt 0.312867 0.889653
vt 0.312867 0.890032
vt 0.312722 0.890383
vt 0.312104 0.890796
vt 0.311724 0.890796
vt 0.311374 0.890651
vt 0.313281 0.890651
vt 0.313013 0.890383
vt 0.312867 0.890032
vt 0.312867 0.889653
vt 0.313013 0.889302
vt 0.313281 0.889034
vt 0.313631 0.888889
vt 0.314361 0.889034
vt 0.314629 0.889302
vt 0.314775 0.889653
vt 0.314629 0.890383
vt 0.314361 0.890651
vt 0.314011 0.890796
vt 0.265691 0.888889
vt 0.283956 0.888889
vt 0.273614 0.907273
vt 0.279179 0.888930
vt 0.286652 0.907100
vt 0.285036 0.907046
vt 0.314775 0.890032
vt 0.314775 0.889653
vt 0.314920 0.889302
vt 0.315188 0.889034
vt 0.315538 0.888889
vt 0.315918 0.888889
vt 0.316268 0.889034
vt 0.316682 0.889653
vt 0.316682 0.890032
vt 0.316536 0.890383
vt 0.315918 0.890796
vt 0.315538 0.890796
vt 0.315188 0.890651
vt 0.317095 0.890651
vt 0.316827 0.890383
vt 0.316682 0.890032
vt 0.316682 0.889653
vt 0.316827 0.889302
vt 0.317095 0.889034
vt 0.317445 0.888889
vt 0.318175 0.889034
vt 0.318444 0.889302
vt 0.318589 0.889653
vt 0.318444 0.890383
vt 0.318175 0.890651
vt 0.317825 0.890796
vt 0.267294 0.907065
vt 0.285909 0.888889
vt 0.275217 0.889097
vt 0.000000 0.000000
vt 0.000000 0.111111
vt 0.111111 0.000000
vt 0.111111 0.111111
vt 0.000000 0.333333
vt 0.111111 0.333333
vt 0.222222 0.000000
vt 0.222222 0.111111
vt 0.222222 0.222222
vt 0.000000 0.333333
vt 0.111111 0.444444
vt 0.222222 0.444444
vt 0.333333 0.000000
vt 0.333333 0.222222
vt 0.333333 0.333333
vt 0.000000 0.555556
vt 0.111111 0.555556
vt 0.333333 0.444444
vt 0.444444 0.000000
vt 0.444444 0.222222
vt 0.444444 0.333333
vt 0.000000 0.555556
vt 0.222222 0.555556
vt 0.333333 0.666667
vt 0.555556 0.000000
vt 0.555556 0.222222
vt 0.555556 0.333333
vt 0.000000 0.666667
vt 0.111111 0.666667
vt 0.666667 0.000000
vt 0.666667 0.111111
vt -0.000000 0.888889
vt 0.111111 0.777778
vt 0.333333 0.888889
vt 0.777778 0.000000
vt 0.777778 0.111111
vt 0.777778 0.585056
vt 0.029500 1.000000
vt 0.111111 0.888889
vt 0.866325 0.777778
vt 0.777778 0.830625
vt 0.836042 0.777778
vt 0.814790 0.777778
s 0
g pinntorp_chair_pinntrop_wood
usemtl pinntrop_wood
f 2/1/1 3/2/1 1/3/1
f 4/4/2 5/5/2 3/2/2
f 5/6/3 8/7/3 7/8/3
f 8/7/4 9/9/4 7/8/4
f 9/9/5 12/10/5 11/11/5
f 12/10/6 13/12/6 11/11/6
f 13/13/7 16/14/7 15/15/7
f 16/14/8 17/16/8 15/15/8
f 17/16/9 20/17/9 19/18/9
f 20/17/10 21/19/10 19/18/10
f 22/20/11 23/21/11 21/12/11
f 23/21/12 26/22/12 25/23/12
f 25/23/13 28/24/13 27/25/13
f 27/25/14 30/26/14 29/27/14
f 22/28/15 14/29/15 6/30/15
f 30/31/16 31/32/16 29/33/16
f 32/34/17 1/3/17 31/32/17
f 15/35/18 23/36/18 31/37/18
f 49/38/19 34/39/19 47/40/19
f 64/41/20 46/42/20 62/43/20
f 59/44/15 48/45/15 63/46/15
f 60/47/21 40/48/21 58/49/21
f 43/50/22 52/51/22 41/52/22
f 33/53/23 34/54/23 35/55/23
f 36/56/24 37/57/24 38/58/24
f 39/59/25 40/60/25 41/61/25
f 42/62/26 43/63/26 44/64/26
f 45/65/27 46/66/27 47/67/27
f 48/68/28 49/69/28 50/70/28
f 51/71/29 52/72/29 53/73/29
f 54/74/30 55/75/30 56/76/30
f 33/77/31 58/78/31 57/79/31
f 34/39/32 38/80/32 35/81/32
f 59/44/33 44/82/33 60/83/33
f 41/52/34 44/84/34 43/50/34
f 39/59/35 52/85/35 51/86/35
f 54/87/36 43/63/36 42/62/36
f 55/88/37 52/89/37 56/90/37
f 61/91/38 53/73/38 62/92/38
f 48/45/39 64/93/39 63/46/39
f 47/40/40 50/94/40 49/38/40
f 45/95/41 34/96/41 33/77/41
f 37/97/42 49/98/42 48/45/42
f 61/91/18 33/77/18 57/79/18
f 51/71/18 57/79/18 39/99/18
f 63/46/43 55/75/43 54/74/43
f 45/95/44 62/92/44 46/100/44
f 37/97/45 60/83/45 38/101/45
f 57/79/46 40/102/46 39/99/46
f 35/103/21 60/47/21 58/49/21
f 42/104/15 63/46/15 54/74/15
f 55/88/20 62/43/20 53/105/20
f 66/106/1 67/107/1 65/108/1
f 68/109/2 69/110/2 67/107/2
f 70/111/3 71/112/3 69/113/3
f 72/114/4 73/115/4 71/112/4
f 73/115/5 76/116/5 75/117/5
f 76/116/6 77/118/6 75/117/6
f 78/119/7 79/120/7 77/110/7
f 80/121/8 81/122/8 79/120/8
f 81/122/9 84/123/9 83/124/9
f 84/123/10 85/33/10 83/124/10
f 86/125/11 87/126/11 85/127/11
f 88/128/12 89/129/12 87/126/12
f 90/130/13 91/131/13 89/129/13
f 91/131/14 94/132/14 93/6/14
f 86/133/15 78/134/15 70/135/15
f 93/136/16 96/137/16 95/138/16
f 95/138/17 66/106/17 65/108/17
f 79/139/18 87/140/18 95/141/18
f 98/142/47 99/143/47 97/144/47
f 100/145/48 101/146/48 99/143/48
f 102/147/49 103/148/49 101/149/49
f 104/150/50 105/151/50 103/148/50
f 106/152/51 107/153/51 105/151/51
f 108/154/52 109/155/52 107/156/52
f 110/157/53 111/158/53 109/155/53
f 112/159/54 113/160/54 111/158/54
f 113/160/55 116/161/55 115/162/55
f 115/162/56 118/163/56 117/164/56
f 117/165/57 120/166/57 119/167/57
f 119/167/58 122/168/58 121/169/58
f 121/169/59 124/170/59 123/171/59
f 123/172/60 126/173/60 125/174/60
f 106/152/61 134/175/61 108/176/61
f 125/174/62 128/177/62 127/178/62
f 127/178/63 98/142/63 97/144/63
f 111/179/18 119/180/18 127/181/18
f 139/182/64 135/183/64 131/184/64
f 116/185/65 139/186/65 118/187/65
f 126/173/66 144/188/66 128/177/66
f 102/147/67 132/189/67 104/150/67
f 114/190/68 136/191/68 137/192/68
f 98/142/69 129/193/69 100/145/69
f 122/168/70 142/194/70 124/170/70
f 110/195/71 134/175/71 135/196/71
f 118/187/72 140/197/72 120/166/72
f 98/142/73 144/188/73 130/198/73
f 106/152/74 132/189/74 133/199/74
f 114/190/75 138/200/75 116/161/75
f 126/201/76 142/194/76 143/202/76
f 102/147/77 129/203/77 131/204/77
f 110/157/78 136/191/78 112/159/78
f 122/168/79 140/197/79 141/205/79
f 146/206/47 147/207/47 145/208/47
f 148/209/48 149/210/48 147/207/48
f 150/211/49 151/212/49 149/213/49
f 152/214/50 153/215/50 151/212/50
f 154/216/51 155/217/51 153/215/51
f 156/218/52 157/219/52 155/220/52
f 158/221/53 159/222/53 157/219/53
f 160/223/54 161/224/54 159/222/54
f 161/224/55 164/225/55 163/226/55
f 163/226/56 166/227/56 165/228/56
f 165/229/57 168/230/57 167/231/57
f 167/231/58 170/232/58 169/233/58
f 169/233/59 172/234/59 171/235/59
f 171/236/60 174/237/60 173/238/60
f 154/216/61 182/239/61 156/240/61
f 173/238/62 176/241/62 175/242/62
f 175/242/63 146/206/63 145/208/63
f 159/243/18 167/244/18 175/245/18
f 187/246/64 183/247/64 179/248/64
f 166/249/65 186/250/65 187/251/65
f 174/237/66 192/252/66 176/241/66
f 152/214/67 179/253/67 180/254/67
f 160/223/68 185/255/68 162/256/68
f 146/206/69 177/257/69 148/209/69
f 170/232/70 190/258/70 172/234/70
f 156/240/71 183/259/71 158/260/71
f 168/230/72 187/251/72 188/261/72
f 176/241/80 178/262/80 146/206/80
f 152/214/74 181/263/74 154/216/74
f 162/256/75 186/264/75 164/225/75
f 172/234/76 191/265/76 174/266/76
f 148/267/77 179/253/77 150/211/77
f 160/223/78 183/268/78 184/269/78
f 168/230/79 189/270/79 170/232/79
f 194/271/81 195/272/81 193/273/81
f 196/274/19 199/275/19 195/276/19
f 200/277/82 197/278/82 199/279/82
f 198/280/22 193/281/22 197/282/22
f 199/283/18 193/284/18 195/285/18
f 196/286/15 198/287/15 200/288/15
f 202/289/81 203/290/81 201/291/81
f 204/292/19 207/293/19 203/294/19
f 208/295/82 205/294/82 207/296/82
f 206/297/22 201/298/22 205/299/22
f 207/300/18 201/301/18 203/302/18
f 204/303/15 206/286/15 208/304/15
f 210/305/22 211/306/22 209/307/22
f 211/308/81 216/309/81 215/310/81
f 216/311/19 213/312/19 215/313/19
f 214/314/82 209/315/82 213/316/82
f 215/317/18 209/318/18 211/319/18
f 212/320/15 214/321/15 216/322/15
f 218/323/22 219/324/22 217/325/22
f 220/326/81 223/327/81 219/328/81
f 224/307/19 221/329/19 223/330/19
f 221/331/82 218/332/82 217/333/82
f 223/334/18 217/308/18 219/335/18
f 220/336/15 222/337/15 224/338/15
f 226/339/83 227/340/83 225/341/83
f 228/342/84 231/317/84 227/343/84
f 232/344/85 229/320/85 231/345/85
f 230/346/86 225/347/86 229/348/86
f 231/349/81 225/326/81 227/339/81
f 228/350/82 230/339/82 232/341/82
f 234/351/83 235/352/83 233/353/83
f 236/331/84 239/354/84 235/355/84
f 240/356/85 237/355/85 239/357/85
f 238/340/86 233/358/86 237/359/86
f 235/359/81 237/341/81 233/340/81
f 240/360/82 234/350/82 238/341/82
f 242/361/83 243/362/83 241/363/83
f 244/364/84 247/346/84 243/365/84
f 248/365/85 245/348/85 247/366/85
f 246/367/86 241/349/86 245/368/86
f 247/369/81 241/349/81 243/350/81
f 244/370/82 246/350/82 248/371/82
f 250/353/22 251/372/22 249/373/22
f 252/355/81 255/374/81 251/375/81
f 256/357/19 253/375/19 255/376/19
f 254/359/82 249/377/82 253/378/82
f 255/379/18 249/359/18 251/378/18
f 252/380/15 254/360/15 256/379/15
f 258/370/22 259/380/22 257/381/22
f 259/382/81 264/383/81 263/384/81
f 264/385/19 261/386/19 263/387/19
f 262/388/82 257/366/82 261/389/82
f 263/390/18 257/367/18 259/368/18
f 264/369/15 258/390/15 262/368/15
f 266/391/87 267/370/87 265/392/87
f 268/392/88 271/381/88 267/393/88
f 272/394/89 269/395/89 271/396/89
f 270/397/90 265/398/90 269/399/90
f 271/400/18 265/375/18 267/401/18
f 272/402/15 266/378/15 270/377/15
f 280/403/91 285/403/91 286/403/91
f 323/403/91 286/403/91 324/403/91
f 279/403/91 295/403/91 294/403/91
f 278/379/92 273/404/92 277/405/92
f 286/403/91 306/403/91 301/403/91
f 273/403/91 283/403/91 282/403/91
f 282/403/91 299/403/91 293/403/91
f 283/403/91 302/403/91 299/403/91
f 290/403/91 305/403/91 306/403/91
f 279/403/91 281/403/91 285/403/91
f 274/403/91 287/403/91 283/403/91
f 324/403/91 301/403/91 326/403/91
f 275/403/91 294/403/91 291/403/91
f 281/403/91 276/403/91 288/403/91
f 286/403/91 289/403/91 290/403/91
f 285/403/91 288/403/91 289/403/91
f 300/403/91 314/403/91 316/403/91
f 294/403/91 311/403/91 310/403/91
f 305/403/91 320/403/91 321/403/91
f 291/403/91 310/403/91 307/403/91
f 293/403/91 315/403/91 309/403/91
f 304/403/91 319/403/91 320/403/91
f 292/403/91 309/403/91 308/403/91
f 276/403/91 300/403/91 303/403/91
f 284/403/91 298/403/91 300/403/91
f 383/403/91 297/403/91 385/403/91
f 281/403/91 291/403/91 298/403/91
f 278/403/91 296/403/91 297/403/91
f 288/403/91 303/403/91 304/403/91
f 277/403/91 292/403/91 296/403/91
f 289/403/91 304/403/91 305/403/91
f 273/403/91 293/403/91 292/403/91
f 391/406/93 313/379/93 312/405/93
f 391/407/18 308/380/18 387/408/18
f 330/409/94 316/381/94 314/410/94
f 316/403/91 322/403/91 319/403/91
f 390/411/15 315/412/15 318/413/15
f 387/403/91 309/403/91 389/403/91
f 319/414/95 321/415/95 320/416/95
f 306/403/91 321/403/91 322/403/91
f 385/403/91 313/403/91 388/403/91
f 301/403/91 322/403/91 317/403/91
f 326/403/91 317/403/91 332/403/91
f 297/403/91 312/403/91 313/403/91
f 303/403/91 316/403/91 319/403/91
f 299/403/91 318/403/91 315/403/91
f 296/403/91 308/403/91 312/403/91
f 298/403/91 307/403/91 314/403/91
f 336/403/91 332/403/91 340/403/91
f 295/403/91 329/403/91 311/403/91
f 307/403/91 330/403/91 314/403/91
f 316/417/15 332/418/15 317/419/15
f 339/420/94 331/421/94 330/409/94
f 307/422/18 328/423/18 327/424/18
f 311/380/93 328/425/93 310/422/93
f 280/403/91 325/403/91 295/403/91
f 334/403/91 326/403/91 336/403/91
f 333/403/91 324/403/91 334/403/91
f 343/403/91 334/403/91 344/403/91
f 344/403/91 336/403/91 346/403/91
f 349/426/94 342/427/94 339/420/94
f 346/403/91 340/403/91 350/403/91
f 325/403/91 338/403/91 329/403/91
f 327/403/91 339/403/91 330/403/91
f 331/428/15 340/429/15 332/418/15
f 328/423/18 337/430/18 327/424/18
f 329/431/93 341/432/93 328/425/93
f 323/403/91 335/403/91 325/403/91
f 356/403/91 350/403/91 360/403/91
f 359/433/94 352/434/94 349/426/94
f 354/403/91 346/403/91 356/403/91
f 353/403/91 344/403/91 354/403/91
f 335/403/91 348/403/91 338/403/91
f 337/403/91 349/403/91 339/403/91
f 342/435/15 350/436/15 340/429/15
f 337/430/18 351/437/18 347/438/18
f 338/439/93 351/440/93 341/432/93
f 333/403/91 345/403/91 335/403/91
f 363/403/91 354/403/91 364/403/91
f 364/403/91 356/403/91 366/403/91
f 372/441/94 359/433/94 369/442/94
f 366/403/91 360/403/91 370/403/91
f 345/403/91 358/403/91 348/403/91
f 347/403/91 359/403/91 349/403/91
f 352/443/15 360/444/15 350/436/15
f 351/437/18 357/445/18 347/438/18
f 348/446/93 361/447/93 351/440/93
f 343/403/91 355/403/91 345/403/91
f 376/403/91 370/403/91 380/403/91
f 382/448/94 369/442/94 379/449/94
f 374/403/91 366/403/91 376/403/91
f 373/403/91 364/403/91 374/403/91
f 355/403/91 368/403/91 358/403/91
f 357/403/91 369/403/91 359/403/91
f 362/450/15 370/451/15 360/444/15
f 357/445/18 371/452/18 367/453/18
f 358/454/93 371/455/93 361/447/93
f 353/403/91 365/403/91 355/403/91
f 383/403/91 374/403/91 384/403/91
f 384/403/91 376/403/91 386/403/91
f 392/456/94 379/449/94 389/457/94
f 386/403/91 380/403/91 390/403/91
f 365/403/91 378/403/91 368/403/91
f 367/403/91 379/403/91 369/403/91
f 372/458/15 380/459/15 370/451/15
f 371/452/18 377/460/18 367/453/18
f 368/461/93 381/462/93 371/455/93
f 363/403/91 375/403/91 365/403/91
f 302/403/91 390/403/91 318/403/91
f 315/393/94 389/457/94 309/463/94
f 287/403/91 386/403/91 302/403/91
f 278/403/91 384/403/91 287/403/91
f 375/403/91 388/403/91 378/403/91
f 377/403/91 389/403/91 379/403/91
f 382/464/15 390/411/15 380/459/15
f 377/460/18 391/407/18 387/408/18
f 378/465/93 391/406/93 381/462/93
f 373/403/91 385/403/91 375/403/91
f 2/1/1 4/4/1 3/2/1
f 4/4/2 6/466/2 5/5/2
f 5/6/3 6/132/3 8/7/3
f 8/7/4 10/467/4 9/9/4
f 9/9/5 10/467/5 12/10/5
f 12/10/6 14/20/6 13/12/6
f 13/13/7 14/468/7 16/14/7
f 16/14/8 18/469/8 17/16/8
f 17/16/9 18/469/9 20/17/9
f 20/17/10 22/470/10 21/19/10
f 22/20/11 24/471/11 23/21/11
f 23/21/12 24/471/12 26/22/12
f 25/23/13 26/22/13 28/24/13
f 27/25/14 28/24/14 30/26/14
f 6/30/15 4/472/15 2/473/15
f 2/473/15 32/474/15 30/475/15
f 30/475/15 28/476/15 26/477/15
f 26/477/15 24/478/15 22/28/15
f 22/28/15 20/479/15 18/480/15
f 18/480/15 16/481/15 14/29/15
f 14/29/15 12/482/15 10/483/15
f 10/483/15 8/484/15 6/30/15
f 6/30/15 2/473/15 30/475/15
f 30/475/15 26/477/15 22/28/15
f 22/28/15 18/480/15 14/29/15
f 14/29/15 10/483/15 6/30/15
f 6/30/15 30/475/15 22/28/15
f 30/31/16 32/34/16 31/32/16
f 32/34/17 2/1/17 1/3/17
f 31/37/18 1/481/18 3/480/18
f 3/480/18 5/485/18 7/486/18
f 7/486/18 9/487/18 11/488/18
f 11/488/18 13/489/18 15/35/18
f 15/35/18 17/490/18 19/491/18
f 19/491/18 21/492/18 23/36/18
f 23/36/18 25/493/18 27/494/18
f 27/494/18 29/495/18 31/37/18
f 31/37/18 3/480/18 7/486/18
f 7/486/18 11/488/18 15/35/18
f 15/35/18 19/491/18 23/36/18
f 23/36/18 27/494/18 31/37/18
f 31/37/18 7/486/18 15/35/18
f 49/38/19 36/496/19 34/39/19
f 64/41/20 50/497/20 46/42/20
f 59/44/15 37/97/15 48/45/15
f 60/47/21 44/84/21 40/48/21
f 43/50/22 56/498/22 52/51/22
f 33/77/96 35/499/96 58/78/96
f 34/39/32 36/496/32 38/80/32
f 59/44/97 42/104/97 44/82/97
f 41/52/34 40/48/34 44/84/34
f 39/59/35 41/61/35 52/85/35
f 54/87/36 56/500/36 43/63/36
f 55/88/37 53/105/37 52/89/37
f 61/91/98 51/71/98 53/73/98
f 48/45/99 50/501/99 64/93/99
f 47/40/40 46/502/40 50/94/40
f 45/95/41 47/503/41 34/96/41
f 37/97/42 36/504/42 49/98/42
f 61/91/18 45/95/18 33/77/18
f 51/71/18 61/91/18 57/79/18
f 63/46/100 64/93/100 55/75/100
f 45/95/101 61/91/101 62/92/101
f 37/97/102 59/44/102 60/83/102
f 57/79/103 58/78/103 40/102/103
f 35/103/21 38/505/21 60/47/21
f 42/104/15 59/44/15 63/46/15
f 55/88/20 64/41/20 62/43/20
f 66/106/1 68/109/1 67/107/1
f 68/109/2 70/119/2 69/110/2
f 70/111/3 72/114/3 71/112/3
f 72/114/4 74/506/4 73/115/4
f 73/115/5 74/506/5 76/116/5
f 76/116/6 78/507/6 77/118/6
f 78/119/7 80/121/7 79/120/7
f 80/121/8 82/508/8 81/122/8
f 81/122/9 82/508/9 84/123/9
f 84/123/10 86/31/10 85/33/10
f 86/125/11 88/128/11 87/126/11
f 88/128/12 90/130/12 89/129/12
f 90/130/13 92/509/13 91/131/13
f 91/131/14 92/509/14 94/132/14
f 70/135/15 68/510/15 66/511/15
f 66/511/15 96/512/15 94/513/15
f 94/513/15 92/514/15 90/515/15
f 90/515/15 88/516/15 86/133/15
f 86/133/15 84/517/15 82/518/15
f 82/518/15 80/519/15 78/134/15
f 78/134/15 76/520/15 74/521/15
f 74/521/15 72/522/15 70/135/15
f 70/135/15 66/511/15 94/513/15
f 94/513/15 90/515/15 86/133/15
f 86/133/15 82/518/15 78/134/15
f 78/134/15 74/521/15 70/135/15
f 70/135/15 94/513/15 86/133/15
f 93/136/16 94/523/16 96/137/16
f 95/138/17 96/137/17 66/106/17
f 95/141/18 65/524/18 67/525/18
f 67/525/18 69/526/18 71/527/18
f 71/527/18 73/528/18 75/529/18
f 75/529/18 77/530/18 79/139/18
f 79/139/18 81/531/18 83/532/18
f 83/532/18 85/533/18 87/140/18
f 87/140/18 89/534/18 91/535/18
f 91/535/18 93/536/18 95/141/18
f 95/141/18 67/525/18 71/527/18
f 71/527/18 75/529/18 79/139/18
f 79/139/18 83/532/18 87/140/18
f 87/140/18 91/535/18 95/141/18
f 95/141/18 71/527/18 79/139/18
f 98/142/104 100/145/104 99/143/104
f 100/145/105 102/537/105 101/146/105
f 102/147/106 104/150/106 103/148/106
f 104/150/107 106/152/107 105/151/107
f 106/152/108 108/176/108 107/153/108
f 108/154/109 110/157/109 109/155/109
f 110/157/110 112/159/110 111/158/110
f 112/159/111 114/190/111 113/160/111
f 113/160/112 114/190/112 116/161/112
f 115/162/113 116/161/113 118/163/113
f 117/165/114 118/187/114 120/166/114
f 119/167/115 120/166/115 122/168/115
f 121/169/116 122/168/116 124/170/116
f 123/172/117 124/538/117 126/173/117
f 106/152/61 133/199/61 134/175/61
f 125/174/118 126/173/118 128/177/118
f 127/178/119 128/177/119 98/142/119
f 127/181/18 97/491/18 99/539/18
f 99/539/18 101/540/18 103/541/18
f 103/541/18 105/542/18 107/543/18
f 107/543/18 109/544/18 111/179/18
f 111/179/18 113/545/18 115/546/18
f 115/546/18 117/547/18 119/180/18
f 119/180/18 121/548/18 123/549/18
f 123/549/18 125/550/18 127/181/18
f 127/181/18 99/539/18 103/541/18
f 103/541/18 107/543/18 111/179/18
f 111/179/18 115/546/18 119/180/18
f 119/180/18 123/549/18 127/181/18
f 127/181/18 103/541/18 111/179/18
f 131/184/64 129/551/64 130/552/64
f 130/552/64 144/553/64 143/554/64
f 143/554/120 142/555/120 141/556/120
f 141/556/121 140/557/121 139/182/121
f 139/182/84 138/558/84 137/559/84
f 137/559/84 136/560/84 135/183/84
f 135/183/120 134/561/120 133/562/120
f 133/562/121 132/563/121 131/184/121
f 131/184/84 130/552/84 143/554/84
f 143/554/64 141/556/64 139/182/64
f 139/182/84 137/559/84 135/183/84
f 135/183/64 133/562/64 131/184/64
f 131/184/64 143/554/64 139/182/64
f 116/185/65 138/564/65 139/186/65
f 126/173/66 143/565/66 144/188/66
f 102/147/67 131/204/67 132/189/67
f 114/190/68 112/159/68 136/191/68
f 98/142/69 130/198/69 129/193/69
f 122/168/70 141/205/70 142/194/70
f 110/195/71 108/176/71 134/175/71
f 118/187/72 139/186/72 140/197/72
f 98/142/73 128/177/73 144/188/73
f 106/152/74 104/150/74 132/189/74
f 114/190/75 137/192/75 138/200/75
f 126/201/76 124/170/76 142/194/76
f 102/147/77 100/566/77 129/203/77
f 110/157/78 135/567/78 136/191/78
f 122/168/79 120/166/79 140/197/79
f 146/206/104 148/209/104 147/207/104
f 148/209/105 150/568/105 149/210/105
f 150/211/106 152/214/106 151/212/106
f 152/214/107 154/216/107 153/215/107
f 154/216/108 156/240/108 155/217/108
f 156/218/109 158/221/109 157/219/109
f 158/221/110 160/223/110 159/222/110
f 160/223/122 162/256/122 161/224/122
f 161/224/112 162/256/112 164/225/112
f 163/226/113 164/225/113 166/227/113
f 165/229/123 166/249/123 168/230/123
f 167/231/115 168/230/115 170/232/115
f 169/233/116 170/232/116 172/234/116
f 171/236/117 172/569/117 174/237/117
f 154/216/61 181/263/61 182/239/61
f 173/238/118 174/237/118 176/241/118
f 175/242/119 176/241/119 146/206/119
f 175/245/18 145/570/18 147/571/18
f 147/571/18 149/572/18 151/573/18
f 151/573/18 153/574/18 155/575/18
f 155/575/18 157/576/18 159/243/18
f 159/243/18 161/577/18 163/578/18
f 163/578/18 165/579/18 167/244/18
f 167/244/18 169/580/18 171/581/18
f 171/581/18 173/582/18 175/245/18
f 175/245/18 147/571/18 151/573/18
f 151/573/18 155/575/18 159/243/18
f 159/243/18 163/578/18 167/244/18
f 167/244/18 171/581/18 175/245/18
f 175/245/18 151/573/18 159/243/18
f 179/248/64 177/583/64 178/584/64
f 178/584/64 192/585/64 191/586/64
f 191/586/120 190/587/120 189/588/120
f 189/588/121 188/589/121 187/246/121
f 187/246/84 186/590/84 185/591/84
f 185/591/84 184/592/84 183/247/84
f 183/247/124 182/593/124 181/594/124
f 181/594/121 180/595/121 179/248/121
f 179/248/84 178/584/84 191/586/84
f 191/586/84 189/588/84 187/246/84
f 187/246/84 185/591/84 183/247/84
f 183/247/64 181/594/64 179/248/64
f 179/248/64 191/586/64 187/246/64
f 166/249/65 164/596/65 186/250/65
f 174/237/66 191/597/66 192/252/66
f 152/214/67 150/211/67 179/253/67
f 160/223/68 184/269/68 185/255/68
f 146/206/69 178/262/69 177/257/69
f 170/232/70 189/270/70 190/258/70
f 156/240/71 182/239/71 183/259/71
f 168/230/72 166/249/72 187/251/72
f 176/241/73 192/252/73 178/262/73
f 152/214/74 180/254/74 181/263/74
f 162/256/75 185/255/75 186/264/75
f 172/234/76 190/258/76 191/265/76
f 148/267/77 177/598/77 179/253/77
f 160/223/78 158/221/78 183/268/78
f 168/230/79 188/261/79 189/270/79
f 194/271/81 196/599/81 195/272/81
f 196/274/19 200/600/19 199/275/19
f 200/277/82 198/601/82 197/278/82
f 198/280/22 194/602/22 193/281/22
f 199/283/18 197/603/18 193/284/18
f 196/286/15 194/604/15 198/287/15
f 202/289/81 204/605/81 203/290/81
f 204/292/19 208/606/19 207/293/19
f 208/295/82 206/607/82 205/294/82
f 206/297/22 202/608/22 201/298/22
f 207/300/18 205/609/18 201/301/18
f 204/303/15 202/610/15 206/286/15
f 210/305/22 212/611/22 211/306/22
f 211/308/81 212/294/81 216/309/81
f 216/311/19 214/612/19 213/312/19
f 214/314/82 210/613/82 209/315/82
f 215/317/18 213/614/18 209/318/18
f 212/320/15 210/615/15 214/321/15
f 218/323/22 220/300/22 219/324/22
f 220/326/81 224/616/81 223/327/81
f 224/307/19 222/617/19 221/329/19
f 221/331/82 222/618/82 218/332/82
f 223/334/18 221/619/18 217/308/18
f 220/336/15 218/316/15 222/337/15
f 226/339/83 228/327/83 227/340/83
f 228/342/84 232/620/84 231/317/84
f 232/344/85 230/615/85 229/320/85
f 230/346/86 226/621/86 225/347/86
f 231/349/81 229/622/81 225/326/81
f 228/350/82 226/349/82 230/339/82
f 234/351/83 236/623/83 235/352/83
f 236/331/84 240/333/84 239/354/84
f 240/356/85 238/624/85 237/355/85
f 238/340/86 234/625/86 233/358/86
f 235/359/81 239/360/81 237/341/81
f 240/360/82 236/371/82 234/350/82
f 242/361/83 244/626/83 243/362/83
f 244/364/84 248/627/84 247/346/84
f 248/365/85 246/346/85 245/348/85
f 246/367/86 242/622/86 241/349/86
f 247/369/81 245/368/81 241/349/81
f 244/370/82 242/369/82 246/350/82
f 250/353/22 252/628/22 251/372/22
f 252/355/81 256/629/81 255/374/81
f 256/357/19 254/355/19 253/375/19
f 254/359/82 250/358/82 249/377/82
f 255/379/18 253/360/18 249/359/18
f 252/380/15 250/371/15 254/360/15
f 258/370/22 260/371/22 259/380/22
f 259/382/81 260/630/81 264/383/81
f 264/385/19 262/631/19 261/386/19
f 262/388/82 258/365/82 257/366/82
f 263/390/18 261/632/18 257/367/18
f 264/369/15 260/391/15 258/390/15
f 266/391/87 268/369/87 267/370/87
f 268/392/88 272/370/88 271/381/88
f 272/394/89 270/633/89 269/395/89
f 270/397/90 266/634/90 265/398/90
f 271/400/18 269/376/18 265/375/18
f 272/402/15 268/404/15 266/378/15
f 280/403/91 279/403/91 285/403/91
f 323/403/91 280/403/91 286/403/91
f 279/403/91 280/403/91 295/403/91
f 278/379/92 274/378/92 273/404/92
f 286/403/91 290/403/91 306/403/91
f 273/403/91 274/403/91 283/403/91
f 282/403/91 283/403/91 299/403/91
f 283/403/91 287/403/91 302/403/91
f 290/403/91 289/403/91 305/403/91
f 279/403/91 275/403/91 281/403/91
f 274/403/91 278/403/91 287/403/91
f 324/403/91 286/403/91 301/403/91
f 275/403/91 279/403/91 294/403/91
f 281/403/91 284/403/91 276/403/91
f 286/403/91 285/403/91 289/403/91
f 285/403/91 281/403/91 288/403/91
f 300/403/91 298/403/91 314/403/91
f 294/403/91 295/403/91 311/403/91
f 305/403/91 304/403/91 320/403/91
f 291/403/91 294/403/91 310/403/91
f 293/403/91 299/403/91 315/403/91
f 304/403/91 303/403/91 319/403/91
f 292/403/91 293/403/91 309/403/91
f 276/403/91 284/403/91 300/403/91
f 284/403/91 281/403/91 298/403/91
f 383/403/91 278/403/91 297/403/91
f 281/403/91 275/403/91 291/403/91
f 278/403/91 277/403/91 296/403/91
f 288/403/91 276/403/91 303/403/91
f 277/403/91 273/403/91 292/403/91
f 289/403/91 288/403/91 304/403/91
f 273/403/91 282/403/91 293/403/91
f 391/406/93 388/635/93 313/379/93
f 391/407/18 312/381/18 308/380/18
f 330/409/94 331/421/94 316/381/94
f 316/403/91 317/403/91 322/403/91
f 390/411/15 392/636/15 315/412/15
f 387/403/91 308/403/91 309/403/91
f 319/414/95 322/637/95 321/415/95
f 306/403/91 305/403/91 321/403/91
f 385/403/91 297/403/91 313/403/91
f 301/403/91 306/403/91 322/403/91
f 326/403/91 301/403/91 317/403/91
f 297/403/91 296/403/91 312/403/91
f 303/403/91 300/403/91 316/403/91
f 299/403/91 302/403/91 318/403/91
f 296/403/91 292/403/91 308/403/91
f 298/403/91 291/403/91 307/403/91
f 336/403/91 326/403/91 332/403/91
f 295/403/91 325/403/91 329/403/91
f 307/403/91 327/403/91 330/403/91
f 316/417/15 331/428/15 332/418/15
f 339/420/94 342/427/94 331/421/94
f 307/422/18 310/410/18 328/423/18
f 311/380/93 329/431/93 328/425/93
f 280/403/91 323/403/91 325/403/91
f 334/403/91 324/403/91 326/403/91
f 333/403/91 323/403/91 324/403/91
f 343/403/91 333/403/91 334/403/91
f 344/403/91 334/403/91 336/403/91
f 349/426/94 352/434/94 342/427/94
f 346/403/91 336/403/91 340/403/91
f 325/403/91 335/403/91 338/403/91
f 327/403/91 337/403/91 339/403/91
f 331/428/15 342/435/15 340/429/15
f 328/423/18 341/638/18 337/430/18
f 329/431/93 338/439/93 341/432/93
f 323/403/91 333/403/91 335/403/91
f 356/403/91 346/403/91 350/403/91
f 359/433/94 362/639/94 352/434/94
f 354/403/91 344/403/91 346/403/91
f 353/403/91 343/403/91 344/403/91
f 335/403/91 345/403/91 348/403/91
f 337/403/91 347/403/91 349/403/91
f 342/435/15 352/443/15 350/436/15
f 337/430/18 341/638/18 351/437/18
f 338/439/93 348/446/93 351/440/93
f 333/403/91 343/403/91 345/403/91
f 363/403/91 353/403/91 354/403/91
f 364/403/91 354/403/91 356/403/91
f 372/441/94 362/639/94 359/433/94
f 366/403/91 356/403/91 360/403/91
f 345/403/91 355/403/91 358/403/91
f 347/403/91 357/403/91 359/403/91
f 352/443/15 362/450/15 360/444/15
f 351/437/18 361/640/18 357/445/18
f 348/446/93 358/454/93 361/447/93
f 343/403/91 353/403/91 355/403/91
f 376/403/91 366/403/91 370/403/91
f 382/448/94 372/441/94 369/442/94
f 374/403/91 364/403/91 366/403/91
f 373/403/91 363/403/91 364/403/91
f 355/403/91 365/403/91 368/403/91
f 357/403/91 367/403/91 369/403/91
f 362/450/15 372/458/15 370/451/15
f 357/445/18 361/640/18 371/452/18
f 358/454/93 368/461/93 371/455/93
f 353/403/91 363/403/91 365/403/91
f 383/403/91 373/403/91 374/403/91
f 384/403/91 374/403/91 376/403/91
f 392/456/94 382/448/94 379/449/94
f 386/403/91 376/403/91 380/403/91
f 365/403/91 375/403/91 378/403/91
f 367/403/91 377/403/91 379/403/91
f 372/458/15 382/464/15 380/459/15
f 371/452/18 381/641/18 377/460/18
f 368/461/93 378/465/93 381/462/93
f 363/403/91 373/403/91 375/403/91
f 302/403/91 386/403/91 390/403/91
f 315/393/94 392/456/94 389/457/94
f 287/403/91 384/403/91 386/403/91
f 278/403/91 383/403/91 384/403/91
f 375/403/91 385/403/91 388/403/91
f 377/403/91 387/403/91 389/403/91
f 382/464/15 392/636/15 390/411/15
f 377/460/18 381/641/18 391/407/18
f 378/465/93 388/635/93 391/406/93
f 373/403/91 383/403/91 385/403/91
